<svg width="456" height="80" viewBox="0 0 456 80" fill="none" xmlns="http://www.w3.org/2000/svg">
<path fill-rule="evenodd" clip-rule="evenodd" d="M0 0V79.9978H41.8402C53.074 79.9978 62.3208 76.109 69.5808 68.3314C76.6115 60.7523 80.1268 51.3279 80.1268 40.0584C80.1268 28.7095 76.6497 19.2653 69.6954 11.7259C62.4737 3.9483 53.1695 0.0396814 41.7829 0H0ZM26.129 27.8262V52.174H38.8633C42.2824 52.174 45.0967 50.9904 47.3063 48.6233C49.4462 46.3165 50.5161 43.4482 50.5161 40.0182C50.5161 36.5641 49.4578 33.6897 47.3412 31.395C45.1432 29.0279 42.3115 27.8382 38.8459 27.8262H26.129ZM114.995 0H126.958H155.032L114.995 80L74.9033 0H103.032H114.995ZM294.864 46.436C303.218 42.4529 307.306 35.4925 307.128 25.5546C306.524 8.51819 297.779 0 280.894 0H233.972V79.4439H264.578V54.9542C266.462 54.6781 268.346 54.8556 270.23 55.4865C271.865 55.9992 273.145 56.8668 274.069 58.0893C275.242 59.6273 275.829 61.6386 275.829 64.123V79.5031H306.381V60.3372C306.381 56.0386 305.013 52.6077 302.276 50.0444C301.209 49.0585 299.947 48.25 298.49 47.619C297.352 47.0669 296.144 46.6726 294.864 46.436ZM264.598 21.2012V30.0349H272.443C273.636 30.0349 274.618 29.6054 275.388 28.7466C276.135 27.9097 276.508 26.869 276.508 25.6246C276.508 24.3714 276.139 23.3285 275.401 22.496C274.634 21.6372 273.646 21.2056 272.437 21.2012H264.598ZM194.315 22.2809H227.092L227.033 0H160.898V80H227.092V57.7191H194.315V50.8523H227.092V29.1477H194.315V22.2809ZM380.6 38.7524C375.837 31.9382 367.578 28.3004 355.291 28.3004H349.427C348.551 28.3004 347.58 28.0638 346.841 27.2689C346.193 26.573 345.881 25.6842 345.881 24.7362C345.881 23.7814 346.224 22.9279 346.841 22.2654C347.58 21.4705 348.551 21.2338 349.427 21.2338H379.683V0H342.586C329.443 0 320.543 4.29461 315.371 12.4783C312.86 16.4893 311.663 20.6002 311.697 24.8436L311.698 24.8598C311.698 30.6065 313.135 35.39 315.943 39.313L315.974 39.3573L316.003 39.4035C320.792 47.0115 329.041 51.0173 341.264 51.0173H347.128C348.004 51.0173 348.974 51.254 349.714 52.0488C350.361 52.7448 350.673 53.6335 350.673 54.5815C350.673 55.5363 350.33 56.3899 349.714 57.0524C348.974 57.8472 348.004 58.0839 347.128 58.0839H316.871V79.5031H353.969C367.112 79.5031 376.012 75.2082 381.184 67.024C383.694 63.0133 384.892 58.9026 384.857 54.6595L384.857 54.6433C384.857 47.8804 383.387 42.6469 380.612 38.7689L380.6 38.7524ZM423.223 22.2809H456L455.942 0H389.806V80H456V57.7191H423.223V50.8523H456V29.1477H423.223V22.2809Z" fill="#EDEDED"/>
</svg>
