<?xml version="1.0" encoding="utf-8"?>
<!-- Generator: Adobe Illustrator 26.3.1, SVG Export Plug-In . SVG Version: 6.00 Build 0)  -->
<svg version="1.1" id="Layer_1" xmlns="http://www.w3.org/2000/svg" x="0px"
	 y="0px"
	 viewBox="0 0 60 60" style="enable-background:new 0 0 60 60;" xml:space="preserve">
<style type="text/css">
	.st0{fill:#FFFFFF;}
</style>
	<path class="st0" d="M9.6,40.5c1.1,1.3,2.4,2.4,3.7,3.5c2.1,1.6,4.5,2.8,7,3.7c0.2,0.1,0.2,0.1,0.1,0.2c-0.6,0.8-1.2,1.7-1.9,2.5
	c-0.1,0.1-0.2,0.2-0.3,0.1c-1.4-0.1-2.8-0.3-4.2-0.6c-2.9-0.7-5.7-1.8-8.2-3.5c-1.5-1-2.8-2.2-4-3.5c-0.1-0.1-0.1-0.2-0.1-0.2
	c0.1-1.3,0.2-2.6,0.3-4c0.1-1.4,0.3-2.8,0.6-4.1c0.7-4.3,1.7-8.5,3.3-12.6c0.9-2.4,1.9-4.7,3.2-6.9c0.2-0.4,0.5-0.7,0.8-0.9
	c2.6-1.8,5.4-3.2,8.4-4c1.2-0.4,2.5-0.6,3.8-0.7c0.1,0,0.2,0,0.3,0.1c0.1,0.3,0.3,0.6,0.5,0.9c0.1,0.1,0.1,0.2-0.1,0.2
	c-1.5,0.4-3,0.8-4.5,1.4c-2.3,1-4.3,2.3-6.2,3.8c-0.4,0.3-0.7,0.6-1.1,0.9c0,0-0.1,0.1-0.1,0.1c0.1,0,0.1,0,0.2-0.1
	c1.8-0.9,3.6-1.8,5.5-2.5c2.2-0.9,4.4-1.5,6.8-1.9c2.7-0.5,5.4-0.6,8.2-0.5c3.7,0.1,7.3,0.7,10.7,2c2.3,0.8,4.4,1.9,6.6,2.9
	C49,17,49,17,49.1,17c0,0,0,0,0.1,0c0,0,0,0,0,0c-0.6-0.6-1.2-1.1-1.9-1.6c-2.2-1.8-4.7-3.1-7.4-3.9c-0.8-0.3-1.7-0.5-2.5-0.7
	c-0.1,0-0.1-0.1-0.1-0.2c0.2-0.3,0.3-0.6,0.5-0.9c0.1-0.2,0.2-0.2,0.4-0.2c1,0.1,2,0.3,3,0.5c3.4,0.9,6.6,2.4,9.5,4.5
	c0.1,0.1,0.2,0.2,0.3,0.3c1,1.6,1.8,3.2,2.5,5c1.1,2.6,2,5.3,2.7,8c0.7,2.6,1.2,5.2,1.6,7.8c0.3,2,0.5,3.9,0.7,5.9
	c0,0.4,0.1,0.9,0.1,1.3c0,0.1,0,0.2-0.1,0.3c-2.2,2.5-4.9,4.3-7.9,5.6c-1.9,0.8-3.9,1.4-5.9,1.7c-0.9,0.1-1.7,0.2-2.6,0.3
	c-0.1,0-0.2,0-0.3-0.1c-0.6-0.9-1.3-1.7-1.9-2.5c-0.1-0.1,0-0.2,0.1-0.2c2.4-0.9,4.6-2,6.7-3.5c1.5-1.1,2.8-2.3,4-3.7
	c0,0,0,0,0.1-0.1c0,0,0,0,0.1,0l0,0c0,0,0,0,0,0c0,0,0,0,0,0c0-0.1-0.1,0-0.1,0c-0.5,0.4-1,0.7-1.5,1c-2.3,1.5-4.7,2.7-7.4,3.5
	c-1.8,0.6-3.6,1-5.4,1.2c-2.7,0.4-5.4,0.5-8.1,0.4c-3.6-0.2-7.1-0.8-10.4-2c-2.7-1-5.2-2.3-7.6-4C9.9,40.6,9.8,40.5,9.6,40.5
	C9.6,40.5,9.6,40.4,9.6,40.5C9.6,40.4,9.6,40.4,9.6,40.5c-0.1-0.1-0.1-0.1-0.1-0.1C9.5,40.4,9.5,40.4,9.6,40.5
	c-0.1-0.1-0.1-0.1-0.1-0.1C9.5,40.4,9.6,40.5,9.6,40.5C9.6,40.5,9.6,40.5,9.6,40.5z M17.1,32.5c0,0.3,0,0.6,0,0.8
	c0.2,1.4,0.7,2.5,1.8,3.4c1.7,1.4,4.1,1.3,5.6-0.3c0.8-0.9,1.3-1.9,1.5-3.1c0.2-1.8-0.2-3.4-1.5-4.7c-1.6-1.6-4.3-1.6-5.9,0
	C17.6,29.8,17.2,31.1,17.1,32.5z M42.9,32.8c0-1.5-0.4-2.7-1.2-3.7c-0.8-1-1.9-1.6-3.2-1.6C37,27.4,36,28,35.1,29
	c-0.7,0.8-1.1,1.7-1.2,2.8c-0.2,1.9,0.3,3.6,1.8,4.9c1.6,1.4,4.1,1.3,5.6-0.2C42.4,35.4,42.8,34.1,42.9,32.8z M10.9,17
	C10.9,17,10.9,17,10.9,17C10.9,17,10.9,17,10.9,17C10.9,17,10.9,17,10.9,17C10.9,17,10.9,17,10.9,17z"/>
</svg>
